<?xml version="1.0" standalone="no"?>
<!DOCTYPE svg PUBLIC "-//W3C//DTD SVG 20010904//EN"
 "http://www.w3.org/TR/2001/REC-SVG-20010904/DTD/svg10.dtd">
<svg version="1.0" xmlns="http://www.w3.org/2000/svg"
 width="234.000000pt" height="210.000000pt" viewBox="0 0 234.000000 210.000000"
 preserveAspectRatio="xMidYMid meet">

<g transform="translate(0.000000,210.000000) scale(0.100000,-0.100000)"
fill="white" stroke="none">
<path d="M143 1996 c-40 -18 -57 -49 -48 -92 10 -54 41 -67 169 -74 l110 -5
22 -110 c12 -60 36 -186 53 -280 163 -870 154 -835 208 -856 16 -6 261 -9 660
-7 l635 3 24 28 c38 44 29 102 -19 129 -17 10 -160 14 -611 18 l-589 5 -17 84
c-11 57 -13 84 -6 87 6 2 281 5 611 6 547 3 603 5 632 20 33 18 48 51 77 158
8 30 31 111 50 180 20 69 52 181 71 250 19 69 39 141 45 160 23 79 4 140 -53
173 -17 9 -211 13 -827 17 l-804 5 -7 34 c-4 18 -17 43 -28 55 -20 19 -34 21
-174 24 -115 2 -160 -1 -184 -12z m1897 -292 c0 -6 -27 -103 -105 -379 -19
-66 -39 -141 -46 -167 l-11 -48 -593 0 -593 0 -16 73 c-9 39 -28 135 -42 212
-14 77 -32 167 -40 200 -7 33 -14 72 -14 88 l0 27 730 0 c402 0 730 -3 730 -6z"/>
<path d="M658 420 c-49 -26 -88 -93 -88 -150 0 -130 149 -213 264 -147 110 62
111 233 1 294 -51 29 -126 30 -177 3z"/>
<path d="M1738 420 c-47 -26 -88 -93 -88 -147 0 -56 38 -123 86 -151 53 -31
144 -27 193 7 39 28 71 91 71 141 0 50 -32 113 -71 141 -46 33 -139 37 -191 9z"/>
</g>
</svg>
