<?xml version="1.0" standalone="no"?>
<!DOCTYPE svg PUBLIC "-//W3C//DTD SVG 20010904//EN"
 "http://www.w3.org/TR/2001/REC-SVG-20010904/DTD/svg10.dtd">
<svg version="1.0" xmlns="http://www.w3.org/2000/svg"
 width="326.000000pt" height="241.000000pt" viewBox="0 0 326.000000 241.000000"
 preserveAspectRatio="xMidYMid meet">

<g transform="translate(0.000000,241.000000) scale(0.100000,-0.100000)"
fill="white" stroke="none">
<path d="M1853 2140 c-12 -5 -29 -19 -37 -32 -15 -23 -141 -266 -278 -535
l-73 -143 -178 0 c-197 0 -240 -9 -257 -55 -16 -41 -12 -64 15 -90 19 -20 34
-25 73 -25 28 0 54 -6 60 -12 5 -7 56 -197 112 -423 56 -225 108 -426 116
-445 20 -47 70 -98 119 -121 37 -17 75 -19 570 -19 598 0 575 -2 647 78 44 49
47 59 168 547 51 204 97 376 102 383 6 6 32 12 60 12 39 0 54 5 73 25 42 41
30 102 -25 130 -23 12 -69 15 -212 15 l-183 1 -20 42 c-35 72 -274 533 -308
594 -41 72 -71 90 -121 69 -37 -15 -56 -41 -56 -76 0 -19 193 -406 281 -562
l38 -68 -440 0 c-241 0 -439 2 -439 5 0 2 22 46 49 97 156 296 261 511 261
533 0 50 -68 94 -117 75z m964 -888 c16 -10 -180 -797 -204 -824 -15 -17 -52
-18 -518 -18 -465 0 -503 1 -517 18 -16 17 -31 67 -74 247 -13 55 -42 172 -65
260 -76 300 -78 309 -66 317 16 10 1429 10 1444 0z"/>
<path d="M1701 1034 c-19 -25 -21 -40 -21 -206 0 -177 0 -179 25 -203 35 -36
96 -35 124 1 19 25 21 40 21 204 0 164 -2 179 -21 204 -16 21 -29 26 -64 26
-35 0 -48 -5 -64 -26z"/>
<path d="M2031 1034 c-19 -25 -21 -40 -21 -206 0 -177 0 -179 25 -203 35 -36
96 -35 124 1 19 25 21 40 21 206 0 177 0 179 -25 203 -35 36 -96 35 -124 -1z"/>
<path d="M2365 1035 c-25 -24 -25 -26 -25 -205 0 -179 0 -181 25 -205 35 -36
96 -35 124 1 19 25 21 40 21 204 0 164 -2 179 -21 204 -28 36 -89 37 -124 1z"/>
</g>
</svg>
